PathFileType	4	(X/Y/Z)	./resultDataOpenSim/trcMotMarkerGrf/sub09/qtm-04-03.trc
DataRate	CameraRate	NumFrames	NumMarkers	Units	OrigDataRate	OrigDataStartFrame	OrigNumFrames
250.000000	250.000000	5	24	m	250.000000	185	491
Frame#	Time	L.Toe.Tip			R.Toe.Tip			L.Ankle.Lat			R.Ankle.Lat			L.Ankle.Med			R.Ankle.Med			L.Heel			R.Heel			L.Knee.Lat			R.Knee.Lat			L.Knee.Med			R.Knee.Med			L.Thigh.Upper			R.Thigh.Upper			L.ASIS			R.ASIS			V.Sacral			L.Acromium			R.Acromium			C7			L.Elbow			R.Elbow			L.Wrist.Lat			R.Wrist.Lat
		X1	Y1	Z1	X2	Y2	Z2	X3	Y3	Z3	X4	Y4	Z4	X5	Y5	Z5	X6	Y6	Z6	X7	Y7	Z7	X8	Y8	Z8	X9	Y9	Z9	X10	Y10	Z10	X11	Y11	Z11	X12	Y12	Z12	X13	Y13	Z13	X14	Y14	Z14	X15	Y15	Z15	X16	Y16	Z16	X17	Y17	Z17	X18	Y18	Z18	X19	Y19	Z19	X20	Y20	Z20	X21	Y21	Z21	X22	Y22	Z22	X23	Y23	Z23	X24	Y24	Z24

185	0.736	0.21466006	-0.030699731	0.042525658	-0.59215475	0.049734614	0.16000668	0.067201988	-0.0020634709	-0.0014466118	-0.67452319	0.17106555	0.19861614	0.084485995	0.017886257	0.094058279	-0.62939277	0.18018122	0.11086761	-0.0045330772	-0.038168933	0.042860561	-0.72818482	0.2024961	0.13949639	0.078325357	0.41462834	-0.056879812	-0.27798275	0.40044292	0.26018315	0.071364851	0.41777017	0.070398552	-0.27573083	0.37641632	0.13611758	-0.11945374	0.78441212	-0.099858031	-0.18505244	0.78345776	0.26984501	-0.057071275	0.86736381	-0.027472949	-0.069679164	0.85988241	0.2134147	-0.22834066	0.92509846	0.079276644	-0.08430736	1.3118785	-0.093996608	-0.1048484	1.3309865	0.24036104	-0.16299824	1.3719784	0.070549961	-0.271579	1.0011562	-0.13636923	-0.24439325	0.98482092	0.32197697	-0.22527825	0.75428807	-0.21238287	-0.046125587	0.79084634	0.31205456
186	0.74	0.21532727	-0.031414826	0.04248818	-0.58914108	0.051547973	0.16042239	0.068039115	-0.0022666132	-0.0011598268	-0.66656829	0.1768596	0.19895546	0.085370786	0.017527625	0.094350136	-0.6206554	0.18408627	0.11157952	-0.0041674442	-0.037938085	0.042852551	-0.71841471	0.20986896	0.13948769	0.085547498	0.41349222	-0.057408505	-0.26533054	0.39837014	0.26115811	0.079329704	0.41811469	0.069505848	-0.26366487	0.37329661	0.13702055	-0.11326953	0.78475578	-0.10116562	-0.17544558	0.78175422	0.26813025	-0.05007976	0.86779158	-0.028557539	-0.062674691	0.85867236	0.21225599	-0.221629	0.92476525	0.079107843	-0.076331331	1.3111675	-0.094354609	-0.096998786	1.3303693	0.23983275	-0.15549535	1.371246	0.070089445	-0.26287013	1.0002012	-0.13676439	-0.23782266	0.98497831	0.32092549	-0.21652929	0.7531394	-0.21248079	-0.041930873	0.78871467	0.31233605
187	0.744	0.21574423	-0.031995919	0.042582585	-0.58581208	0.053453534	0.160903	0.068680174	-0.0025286795	-0.00094031195	-0.65792552	0.18262002	0.19936742	0.085919806	0.01717523	0.094607818	-0.61147613	0.18787097	0.11226644	-0.0040087058	-0.037771513	0.042775556	-0.70809844	0.21718851	0.13968586	0.091990122	0.41232491	-0.058005566	-0.25308676	0.39622845	0.26189225	0.086833875	0.41792841	0.068699604	-0.25139949	0.37026082	0.13781783	-0.10707565	0.78497338	-0.10239847	-0.1670529	0.78023091	0.26697076	-0.043168978	0.86820847	-0.029677911	-0.055711443	0.85758425	0.21115427	-0.2150056	0.924437	0.07889779	-0.068406075	1.3105729	-0.094708759	-0.089076356	1.3298173	0.23933172	-0.14801038	1.3705894	0.069670819	-0.25414965	0.99930348	-0.13709885	-0.23104934	0.98519812	0.31988308	-0.20762574	0.75205049	-0.21255048	-0.037801838	0.78666258	0.31261476
188	0.748	0.21594566	-0.032465618	0.042887203	-0.5821401	0.055435736	0.16141576	0.069100239	-0.002777248	-0.00076388818	-0.64858614	0.18831819	0.19985637	0.086137509	0.016849737	0.09485595	-0.60179029	0.19151967	0.11298397	-0.0039897627	-0.037714912	0.042683518	-0.69733979	0.22440426	0.1401116	0.097676174	0.41116591	-0.058707385	-0.24130572	0.39410298	0.26249056	0.093841177	0.41720215	0.067969186	-0.23892054	0.36730449	0.13854199	-0.10084966	0.78506684	-0.10347647	-0.15981719	0.77881364	0.26642555	-0.036325414	0.86859386	-0.030774443	-0.048857012	0.85661238	0.21009539	-0.20847733	0.92412364	0.078628177	-0.060550929	1.3100938	-0.095063704	-0.08111892	1.3293376	0.23885637	-0.14055618	1.3700149	0.069277651	-0.24540701	0.99844357	-0.13743979	-0.22427843	0.9855248	0.31899266	-0.19857144	0.75102658	-0.21258426	-0.033745997	0.78468668	0.31288842
189	0.752	0.21602974	-0.032826538	0.043297751	-0.57806997	0.057483886	0.16194459	0.069364342	-0.0029876595	-0.00055995492	-0.63864332	0.19389448	0.20037622	0.086181232	0.01655344	0.095109943	-0.59163252	0.19507405	0.1137307	-0.004028251	-0.037715669	0.042634064	-0.6861821	0.23147132	0.14068362	0.10272283	0.40993895	-0.059404023	-0.22966765	0.39202795	0.26299085	0.10028354	0.41595146	0.067266392	-0.22625932	0.36448157	0.13916945	-0.094569622	0.78502744	-0.10435776	-0.15321126	0.77744598	0.26627223	-0.029543831	0.86892342	-0.03180774	-0.042193005	0.85574611	0.2090549	-0.20204304	0.92383447	0.078293672	-0.05276661	1.3097207	-0.095409426	-0.073180064	1.3289367	0.23840486	-0.13315162	1.36954	0.068887181	-0.2366521	0.99760572	-0.13784314	-0.21766129	0.98595837	0.3183288	-0.1893738	0.75006926	-0.21255757	-0.029767301	0.78278408	0.31315778
